<svg width="80" height="60" viewBox="0 0 80 60" fill="none" xmlns="http://www.w3.org/2000/svg">
<path d="M7.32953 25.0068L3.19429 48.4535L3.18476 48.4906L1.81524 56.2383C1.79714 56.3297 1.78762 56.4221 1.78762 56.5145C1.78762 57.2678 2.32953 57.9392 3.09238 58.0678C3.19429 58.0859 3.30381 58.0954 3.40572 58.0954C3.41524 58.0954 3.41524 58.0954 3.42381 58.0954H11.1076C11.9991 58.1135 12.7991 57.4792 12.9638 56.5697L17.8448 28.8859C17.6886 28.8402 17.5324 28.803 17.3667 28.7668C13.5248 27.7364 10.0686 26.4135 7.32953 25.0068Z" fill="white"/>
<path d="M21.3124 15.5413C11.5057 12.9137 2.91715 13.1689 2.12953 16.1108C1.34095 19.0528 8.65143 23.568 18.4581 26.1956C28.2648 28.8232 36.8533 28.568 37.641 25.6261C38.4286 22.6842 31.119 18.1689 21.3124 15.5413Z" fill="white"/>
<path d="M27.8752 14.7211L14.1629 2.37348C13.8905 2.12872 13.5648 1.98301 13.2286 1.92872C13.1419 1.91443 13.0562 1.91158 12.9705 1.90967C12.9362 1.90872 12.9029 1.90396 12.8695 1.90491C12.7657 1.90872 12.6638 1.92301 12.5638 1.94396C12.5495 1.94682 12.5352 1.94682 12.5219 1.95062C12.1752 2.03158 11.861 2.21062 11.6152 2.46301L11.6124 2.46586C11.3657 2.72015 11.1905 3.04872 11.1248 3.42396L9.79429 10.9697C13.1514 10.9763 17.3981 11.5668 21.9152 12.7773C24.0419 13.3468 26.041 14.0087 27.8752 14.7211Z" fill="white"/>
<path d="M78.1848 56.2383L76.8152 48.4897C76.8057 48.444 76.7971 48.4068 76.7876 48.3706L72.6695 25.0068C69.921 26.4135 66.4743 27.7364 62.6238 28.7659C62.4676 28.803 62.3114 28.8392 62.1552 28.8849L67.0362 56.5687C67.1924 57.4783 68.001 58.1126 68.8924 58.0945H76.5762C76.5857 58.0945 76.5857 58.0945 76.5943 58.0945C76.6952 58.0945 76.7962 58.0849 76.8971 58.0668C77.6695 57.9383 78.2114 57.2583 78.2114 56.504C78.2124 56.4221 78.2029 56.3306 78.1848 56.2383Z" fill="white"/>
<path d="M77.8648 16.1095C77.0762 13.1676 68.4876 12.9133 58.6819 15.54C48.8752 18.1676 41.5648 22.6828 42.3533 25.6247C43.1419 28.5666 51.7305 28.8219 61.5362 26.1943C71.3419 23.5666 78.6533 19.0514 77.8648 16.1095Z" fill="white"/>
<path d="M70.2 10.9697L68.8695 3.42396C68.8038 3.04872 68.6276 2.72015 68.3819 2.46586L68.379 2.46301C68.1343 2.21062 67.819 2.03062 67.4724 1.95062C67.4581 1.94777 67.4438 1.94682 67.4305 1.94396C67.3305 1.92301 67.2286 1.90872 67.1248 1.90491C67.0914 1.90396 67.0581 1.90872 67.0248 1.90967C66.939 1.91158 66.8533 1.91539 66.7667 1.92872C66.4305 1.98396 66.1048 2.12872 65.8324 2.37348L52.119 14.7211C53.9543 14.0087 55.9524 13.3468 58.0791 12.7773C62.5962 11.5668 66.8429 10.9754 70.2 10.9697Z" fill="white"/>
</svg>
