<svg width="144" height="23" viewBox="0 0 144 23" fill="none" xmlns="http://www.w3.org/2000/svg">
<path d="M1.31289 22C1.11289 22 0.932891 21.93 0.772891 21.79C0.632891 21.63 0.562891 21.45 0.562891 21.25V1.75C0.562891 1.53 0.632891 1.35 0.772891 1.21C0.932891 1.07 1.11289 0.999999 1.31289 0.999999H4.55289C4.89289 0.999999 5.14289 1.09 5.30289 1.27C5.46289 1.43 5.56289 1.56 5.60289 1.66L10.8829 11.11L16.1629 1.66C16.2229 1.56 16.3229 1.43 16.4629 1.27C16.6229 1.09 16.8729 0.999999 17.2129 0.999999H20.4229C20.6429 0.999999 20.8229 1.07 20.9629 1.21C21.1229 1.35 21.2029 1.53 21.2029 1.75V21.25C21.2029 21.45 21.1229 21.63 20.9629 21.79C20.8229 21.93 20.6429 22 20.4229 22H16.8529C16.6329 22 16.4429 21.93 16.2829 21.79C16.1429 21.63 16.0729 21.45 16.0729 21.25V10L12.7129 16.27C12.6129 16.45 12.4829 16.61 12.3229 16.75C12.1629 16.89 11.9429 16.96 11.6629 16.96H10.1029C9.82289 16.96 9.60289 16.89 9.44289 16.75C9.28289 16.61 9.15289 16.45 9.05289 16.27L5.66289 10V21.25C5.66289 21.45 5.59289 21.63 5.45289 21.79C5.31289 21.93 5.13289 22 4.91289 22H1.31289ZM24.2066 22C24.0466 22 23.8966 21.94 23.7566 21.82C23.6366 21.68 23.5766 21.53 23.5766 21.37C23.5766 21.27 23.5866 21.18 23.6066 21.1L30.6566 1.84C30.7166 1.62 30.8366 1.43 31.0166 1.27C31.2166 1.09 31.4866 0.999999 31.8266 0.999999H36.2666C36.6066 0.999999 36.8666 1.09 37.0466 1.27C37.2466 1.43 37.3766 1.62 37.4366 1.84L44.4566 21.1C44.4966 21.18 44.5166 21.27 44.5166 21.37C44.5166 21.53 44.4466 21.68 44.3066 21.82C44.1866 21.94 44.0366 22 43.8566 22H40.1666C39.8666 22 39.6366 21.93 39.4766 21.79C39.3366 21.63 39.2466 21.49 39.2066 21.37L38.0366 18.31H30.0266L28.8866 21.37C28.8466 21.49 28.7566 21.63 28.6166 21.79C28.4766 21.93 28.2366 22 27.8966 22H24.2066ZM31.2566 13.99H36.8366L34.0466 6.07L31.2566 13.99ZM50.1126 22C49.8926 22 49.7126 21.93 49.5726 21.79C49.4326 21.63 49.3626 21.45 49.3626 21.25V5.71H44.0226C43.8026 5.71 43.6226 5.64 43.4826 5.5C43.3426 5.34 43.2726 5.16 43.2726 4.96V1.75C43.2726 1.53 43.3426 1.35 43.4826 1.21C43.6226 1.07 43.8026 0.999999 44.0226 0.999999H60.1626C60.3826 0.999999 60.5626 1.07 60.7026 1.21C60.8426 1.35 60.9126 1.53 60.9126 1.75V4.96C60.9126 5.16 60.8426 5.34 60.7026 5.5C60.5626 5.64 60.3826 5.71 60.1626 5.71H54.8226V21.25C54.8226 21.45 54.7526 21.63 54.6126 21.79C54.4726 21.93 54.2926 22 54.0726 22H50.1126ZM71.9268 22.3C70.0468 22.3 68.4268 21.99 67.0668 21.37C65.7068 20.75 64.6468 19.84 63.8868 18.64C63.1468 17.44 62.7368 15.95 62.6568 14.17C62.6368 13.35 62.6268 12.47 62.6268 11.53C62.6268 10.59 62.6368 9.69 62.6568 8.83C62.7368 7.09 63.1568 5.61 63.9168 4.39C64.6768 3.17 65.7368 2.25 67.0968 1.63C68.4568 1.01 70.0668 0.699999 71.9268 0.699999C73.2468 0.699999 74.4668 0.869999 75.5868 1.21C76.7068 1.53 77.6868 2.01 78.5268 2.65C79.3668 3.27 80.0168 4.03 80.4768 4.93C80.9568 5.81 81.2068 6.81 81.2268 7.93C81.2468 8.11 81.1868 8.26 81.0468 8.38C80.9268 8.5 80.7768 8.56 80.5968 8.56H76.5468C76.2868 8.56 76.0868 8.51 75.9468 8.41C75.8068 8.29 75.6868 8.08 75.5868 7.78C75.3068 6.72 74.8468 6 74.2068 5.62C73.5868 5.22 72.8168 5.02 71.8968 5.02C70.7968 5.02 69.9268 5.33 69.2868 5.95C68.6468 6.55 68.2968 7.56 68.2368 8.98C68.1768 10.62 68.1768 12.3 68.2368 14.02C68.2968 15.44 68.6468 16.46 69.2868 17.08C69.9268 17.68 70.7968 17.98 71.8968 17.98C72.8168 17.98 73.5968 17.78 74.2368 17.38C74.8768 16.98 75.3268 16.26 75.5868 15.22C75.6668 14.92 75.7768 14.72 75.9168 14.62C76.0768 14.5 76.2868 14.44 76.5468 14.44H80.5968C80.7768 14.44 80.9268 14.5 81.0468 14.62C81.1868 14.74 81.2468 14.89 81.2268 15.07C81.2068 16.19 80.9568 17.2 80.4768 18.1C80.0168 18.98 79.3668 19.74 78.5268 20.38C77.6868 21 76.7068 21.48 75.5868 21.82C74.4668 22.14 73.2468 22.3 71.9268 22.3ZM85.1313 22C84.9113 22 84.7313 21.93 84.5913 21.79C84.4513 21.65 84.3813 21.47 84.3813 21.25V1.75C84.3813 1.53 84.4513 1.35 84.5913 1.21C84.7313 1.07 84.9113 0.999999 85.1313 0.999999H89.0013C89.2213 0.999999 89.4013 1.07 89.5413 1.21C89.7013 1.35 89.7812 1.53 89.7812 1.75V8.98H97.1613V1.75C97.1613 1.53 97.2313 1.35 97.3713 1.21C97.5113 1.07 97.6913 0.999999 97.9113 0.999999H101.781C102.001 0.999999 102.181 1.07 102.321 1.21C102.461 1.35 102.531 1.53 102.531 1.75V21.25C102.531 21.45 102.461 21.63 102.321 21.79C102.181 21.93 102.001 22 101.781 22H97.9113C97.6913 22 97.5113 21.93 97.3713 21.79C97.2313 21.63 97.1613 21.45 97.1613 21.25V13.78H89.7812V21.25C89.7812 21.45 89.7013 21.63 89.5413 21.79C89.4013 21.93 89.2213 22 89.0013 22H85.1313ZM107.485 22C107.265 22 107.085 21.93 106.945 21.79C106.805 21.63 106.735 21.45 106.735 21.25V1.75C106.735 1.53 106.805 1.35 106.945 1.21C107.085 1.07 107.265 0.999999 107.485 0.999999H121.495C121.715 0.999999 121.895 1.07 122.035 1.21C122.175 1.35 122.245 1.53 122.245 1.75V4.57C122.245 4.79 122.175 4.97 122.035 5.11C121.895 5.25 121.715 5.32 121.495 5.32H111.925V9.37H120.835C121.055 9.37 121.235 9.45 121.375 9.61C121.515 9.75 121.585 9.93 121.585 10.15V12.76C121.585 12.96 121.515 13.14 121.375 13.3C121.235 13.44 121.055 13.51 120.835 13.51H111.925V17.68H121.735C121.955 17.68 122.135 17.75 122.275 17.89C122.415 18.03 122.485 18.21 122.485 18.43V21.25C122.485 21.45 122.415 21.63 122.275 21.79C122.135 21.93 121.955 22 121.735 22H107.485ZM126.645 22C126.425 22 126.245 21.93 126.105 21.79C125.965 21.63 125.895 21.45 125.895 21.25V1.75C125.895 1.53 125.965 1.35 126.105 1.21C126.245 1.07 126.425 0.999999 126.645 0.999999H134.805C137.405 0.999999 139.445 1.6 140.925 2.8C142.405 3.98 143.145 5.66 143.145 7.84C143.145 9.26 142.805 10.46 142.125 11.44C141.445 12.42 140.545 13.16 139.425 13.66L143.535 21.04C143.595 21.16 143.625 21.27 143.625 21.37C143.625 21.53 143.555 21.68 143.415 21.82C143.295 21.94 143.155 22 142.995 22H139.005C138.625 22 138.345 21.91 138.165 21.73C137.985 21.53 137.855 21.35 137.775 21.19L134.355 14.59H131.295V21.25C131.295 21.45 131.215 21.63 131.055 21.79C130.915 21.93 130.735 22 130.515 22H126.645ZM131.295 10.33H134.745C135.685 10.33 136.385 10.1 136.845 9.64C137.325 9.18 137.565 8.56 137.565 7.78C137.565 7 137.335 6.37 136.875 5.89C136.435 5.41 135.725 5.17 134.745 5.17H131.295V10.33Z" fill="white"/>
</svg>
